<svg xmlns="http://www.w3.org/2000/svg" width="154" height="154" viewBox="0 0 154 154" fill="none" xmlns:xlink="http://www.w3.org/1999/xlink">
<path d="M107.315 46.5361C107.097 46.8045 106.864 47.0604 106.617 47.3026C106.591 47.3342 106.574 47.3727 106.568 47.4136C106.563 47.4545 106.57 47.496 106.588 47.5332C106.606 47.5704 106.634 47.6017 106.669 47.6233C106.704 47.645 106.744 47.656 106.786 47.6552C107.675 47.1101 108.378 46.3083 108.802 45.3556C108.909 45.0337 108.411 44.7424 108.25 45.095C107.828 46.0225 106.234 46.0762 105.812 45.9305C105.754 45.9092 105.69 45.9117 105.634 45.9376C105.578 45.9635 105.535 46.0106 105.513 46.0685C105.492 46.1264 105.494 46.1905 105.52 46.2466C105.546 46.3026 105.593 46.3461 105.651 46.3675C106.185 46.5522 106.755 46.6099 107.315 46.5361ZM104.532 42.6268C104.171 42.9479 103.79 43.2449 103.39 43.516C103.315 43.5646 103.254 43.6318 103.212 43.711C103.17 43.7902 103.15 43.8788 103.152 43.9682C103.152 44.2442 104.118 44.9647 104.126 44.9724C104.166 45.0025 104.216 45.0174 104.267 45.0143C104.317 45.0113 104.365 44.9905 104.402 44.9557C104.438 44.9209 104.461 44.8742 104.467 44.824C104.473 44.7738 104.46 44.7232 104.432 44.6811C104.379 44.5814 104.072 44.2058 103.881 43.9529C104.747 43.0867 105.138 42.8031 104.846 42.5885C104.797 42.5581 104.74 42.5454 104.682 42.5524C104.625 42.5593 104.572 42.5856 104.532 42.6268ZM103.865 42.1592C104.172 42.0212 104.095 41.6686 104.463 40.7488C104.478 40.7156 104.486 40.6798 104.486 40.6435C104.487 40.6072 104.481 40.5712 104.468 40.5374C104.454 40.5035 104.435 40.4727 104.41 40.4465C104.385 40.4203 104.355 40.3993 104.321 40.3847C104.288 40.3701 104.252 40.3622 104.216 40.3614C104.18 40.3606 104.144 40.367 104.11 40.3802C104.076 40.3933 104.045 40.413 104.019 40.4381C103.993 40.4633 103.972 40.4933 103.957 40.5265C103.528 41.4233 103.191 41.6073 103.329 41.9216C103.345 41.9745 103.373 42.0233 103.41 42.0647C103.447 42.1061 103.492 42.1391 103.543 42.1616C103.594 42.1841 103.649 42.1955 103.704 42.1951C103.76 42.1947 103.815 42.1824 103.865 42.1592ZM107.023 43.1327C107.33 42.9947 107.261 42.6344 107.621 41.7223C107.651 41.6552 107.652 41.5791 107.626 41.5109C107.599 41.4426 107.546 41.3877 107.479 41.3582C107.412 41.3287 107.336 41.3271 107.268 41.3537C107.2 41.3803 107.145 41.4329 107.115 41.5C106.763 42.2665 106.349 42.5885 106.479 42.8951C106.497 42.9483 106.525 42.9972 106.563 43.0386C106.601 43.08 106.647 43.113 106.698 43.1355C106.749 43.1579 106.805 43.1692 106.861 43.1688C106.917 43.1683 106.972 43.156 107.023 43.1327ZM44.5281 30.209C44.1601 27.4725 44.2291 27.4111 43.9915 27.4111C30.5925 27.4111 31.3054 27.3192 31.3054 27.6028V30.14C31.3054 30.2473 31.3897 30.3776 31.4971 30.3776C45.057 30.4236 44.5741 30.5003 44.5281 30.209ZM48.813 27.4111C45.149 27.4111 45.3636 27.4111 45.2793 27.4725C45.195 27.5338 45.2103 27.4188 45.5629 30.255C45.5629 30.4926 45.6012 30.4236 48.813 30.4236C48.8638 30.4236 48.9125 30.4034 48.9485 30.3675C48.9844 30.3315 49.0046 30.2828 49.0046 30.232V27.5951C49.0026 27.5456 48.9816 27.4988 48.9458 27.4645C48.9101 27.4302 48.8625 27.4111 48.813 27.4111ZM115.195 27.4571L110.335 27.7944C110.311 27.7944 110.287 27.7992 110.265 27.8085C110.244 27.8179 110.224 27.8315 110.207 27.8487C110.191 27.8659 110.178 27.8863 110.17 27.9086C110.161 27.9308 110.157 27.9546 110.158 27.9784V30.8759C110.158 30.9267 110.179 30.9754 110.215 31.0114C110.25 31.0473 110.299 31.0675 110.35 31.0675H115.202C115.253 31.0675 115.302 31.0473 115.338 31.0114C115.374 30.9754 115.394 30.9267 115.394 30.8759C115.394 27.5951 115.478 27.4495 115.195 27.4571ZM33.8273 41.1014V38.8401C33.8273 38.7893 33.8071 38.7406 33.7712 38.7046C33.7352 38.6687 33.6865 38.6485 33.6357 38.6485H31.7577C31.7069 38.6485 31.6581 38.6687 31.6222 38.7046C31.5862 38.7406 31.566 38.7893 31.566 38.8401C31.566 41.3773 31.566 41.2547 31.6274 41.3313C31.6887 41.408 31.6274 41.3927 33.6433 41.293C33.6922 41.2893 33.738 41.2677 33.7719 41.2323C33.8058 41.197 33.8256 41.1504 33.8273 41.1014ZM44.7734 38.1349C34.2872 38.6791 34.6782 38.5642 34.6782 38.8401C34.6782 41.1857 34.6782 41.0707 34.7318 41.1397C34.7855 41.2087 34.1952 41.201 44.781 41.0477C44.8319 41.0477 44.8806 41.0275 44.9165 40.9916C44.9525 40.9557 44.9727 40.9069 44.9727 40.8561V38.3265C44.9738 38.3004 44.9694 38.2743 44.9597 38.25C44.95 38.2257 44.9353 38.2037 44.9164 38.1856C44.8975 38.1675 44.875 38.1536 44.8503 38.1448C44.8257 38.1361 44.7994 38.1327 44.7734 38.1349ZM60.3186 38.1272V40.3502C60.3186 40.401 60.3388 40.4498 60.3747 40.4857C60.4107 40.5216 60.4594 40.5418 60.5102 40.5418C63.1471 40.5418 63.0168 40.5418 63.1011 40.4728C63.1854 40.4038 63.1701 40.4728 62.8252 38.0966C62.8252 37.8666 62.7102 37.9356 60.5256 37.9356C60.4991 37.9335 60.4726 37.9369 60.4475 37.9456C60.4225 37.9542 60.3995 37.968 60.38 37.986C60.3606 38.004 60.3451 38.0259 60.3345 38.0502C60.3239 38.0745 60.3185 38.1007 60.3186 38.1272ZM71.6096 40.5035C71.6939 40.4038 71.6709 40.5035 71.4026 38.2499C71.4026 38.0123 71.7859 38.0966 64.2662 37.9586C64.239 37.9584 64.2121 37.964 64.1872 37.9751C64.1623 37.9861 64.14 38.0023 64.1219 38.0226C64.1038 38.0429 64.0902 38.0669 64.082 38.0928C64.0739 38.1188 64.0713 38.1462 64.0746 38.1732C64.3659 40.5648 64.3122 40.5648 64.5422 40.5648C72.0542 40.5648 71.5253 40.6261 71.6096 40.5035ZM73.0047 40.5418C76.2701 40.6338 76.0708 40.6491 76.1551 40.5418C76.2394 40.4345 76.2164 40.5955 76.2164 38.1042C76.2145 38.0527 76.1926 38.004 76.1554 37.9683C76.1183 37.9325 76.0687 37.9126 76.0171 37.9126C72.4604 38.0506 72.6674 38.0123 72.5908 38.1042C72.5141 38.1962 72.5371 38.1042 72.8207 40.3502C72.824 40.3986 72.8443 40.4444 72.8779 40.4794C72.9115 40.5144 72.9564 40.5365 73.0047 40.5418ZM34.6398 50.3381C35.0921 47.5019 35.0921 47.6552 35.0078 47.5632C34.9234 47.4713 35.0538 47.4866 32.3709 47.6322C32.3228 47.6361 32.2779 47.658 32.2452 47.6935C32.2125 47.729 32.1944 47.7756 32.1946 47.8239V50.4761C32.1946 50.5269 32.2148 50.5756 32.2507 50.6116C32.2867 50.6475 32.3354 50.6677 32.3862 50.6677L34.4942 50.499C34.5324 50.4911 34.5671 50.4713 34.5933 50.4423C34.6195 50.4134 34.6358 50.3769 34.6398 50.3381ZM38.2272 50.1694C38.2272 47.3869 38.2272 47.5402 38.1659 47.4559C38.1045 47.3716 38.2119 47.4023 36.0886 47.4942C35.8663 47.4942 35.9123 47.4942 35.6133 50.1464C35.6101 50.1735 35.6126 50.2009 35.6207 50.2269C35.6289 50.2528 35.6425 50.2768 35.6606 50.2971C35.6788 50.3174 35.701 50.3336 35.7259 50.3446C35.7508 50.3557 35.7777 50.3613 35.805 50.3611H38.0356C38.0864 50.3611 38.1351 50.3409 38.1711 50.3049C38.207 50.269 38.2272 50.2203 38.2272 50.1694ZM42.0598 47.3563C42.0598 50.1311 42.0598 49.9778 42.1135 50.0621C42.1672 50.1464 41.0327 50.1848 60.9318 49.0886C60.9585 49.0869 60.9845 49.0795 61.0081 49.0671C61.0318 49.0547 61.0526 49.0374 61.0692 49.0165C61.0858 48.9956 61.0978 48.9714 61.1045 48.9455C61.1112 48.9197 61.1125 48.8927 61.1081 48.8663L60.6176 45.7389C60.61 45.6908 60.5843 45.6474 60.5459 45.6175C60.5075 45.5876 60.4591 45.5734 60.4106 45.5779C41.1477 47.2796 42.0598 47.0803 42.0598 47.3563ZM67.5087 48.5981C67.5087 44.957 67.5087 45.1717 67.4473 45.0873C67.386 45.003 67.7156 44.9877 61.89 45.5626C61.8378 45.5702 61.7905 45.5975 61.7578 45.6388C61.725 45.6801 61.7092 45.7323 61.7137 45.7849C62.2043 48.9966 62.1429 49.012 62.3729 49.012L67.3247 48.7897C67.3742 48.7877 67.421 48.7666 67.4553 48.7309C67.4896 48.6952 67.5087 48.6476 67.5087 48.5981ZM71.7322 45.2253V48.5061C71.7322 48.5569 71.7524 48.6056 71.7884 48.6416C71.8243 48.6775 71.8731 48.6977 71.9239 48.6977H76.8067C76.8575 48.6977 76.9062 48.6775 76.9422 48.6416C76.9781 48.6056 76.9983 48.5569 76.9983 48.5061C76.9983 44.7501 76.9983 45.003 76.937 44.9187C76.8757 44.8344 77.2359 44.8421 71.9162 45.0337C71.8667 45.0357 71.8199 45.0567 71.7856 45.0925C71.7513 45.1282 71.7322 45.1758 71.7322 45.2253ZM96.2459 35.7127C90.8802 36.0423 91.0565 35.935 91.0565 36.1956V39.1621C91.0565 39.2129 91.0767 39.2616 91.1126 39.2976C91.1485 39.3335 91.1973 39.3537 91.2481 39.3537H96.2612C96.312 39.3537 96.3608 39.3335 96.3967 39.2976C96.4327 39.2616 96.4529 39.2129 96.4529 39.1621C96.4529 35.9043 96.5372 35.6973 96.2459 35.7127ZM36.7171 60.6479C36.9548 56.8613 36.9624 57.1679 36.8858 57.0835C36.8091 56.9992 37.1157 57.0222 32.7312 57.0222C32.6803 57.0222 32.6316 57.0424 32.5957 57.0784C32.5597 57.1143 32.5395 57.163 32.5395 57.2139V60.6403C32.5395 60.6911 32.5597 60.7398 32.5957 60.7758C32.6316 60.8117 32.6803 60.8319 32.7312 60.8319H36.5255C36.5745 60.8301 36.6211 60.8104 36.6564 60.7765C36.6918 60.7425 36.7134 60.6968 36.7171 60.6479ZM46.797 56.8076C46.7475 56.8096 46.7007 56.8306 46.6664 56.8664C46.6321 56.9021 46.613 56.9497 46.613 56.9992V59.9044C46.613 59.9552 46.6332 60.0039 46.6692 60.0399C46.7051 60.0758 46.7538 60.096 46.8047 60.096H49.8248C49.8756 60.096 49.9244 60.0758 49.9603 60.0399C49.9962 60.0039 50.0164 59.9552 50.0164 59.9044V56.8842C50.0145 56.8327 49.9926 56.784 49.9554 56.7483C49.9183 56.7125 49.8687 56.6926 49.8171 56.6926L46.797 56.8076ZM64.5115 56.2174C50.4304 56.5853 51.1509 56.547 51.1509 56.8229C51.1509 60.0807 51.1509 59.889 51.2046 59.9734C51.2582 60.0577 50.438 60.0654 64.5269 59.7281C64.5757 59.7243 64.6215 59.7027 64.6554 59.6674C64.6894 59.632 64.7091 59.5854 64.7108 59.5364V56.409C64.712 56.3829 64.7076 56.3568 64.6979 56.3325C64.6882 56.3082 64.6734 56.2862 64.6546 56.2681C64.6357 56.2499 64.6132 56.236 64.5885 56.2273C64.5638 56.2185 64.5376 56.2152 64.5115 56.2174ZM76.7454 56.1484C76.4234 59.3065 76.4157 59.1149 76.5001 59.2145C76.5844 59.3142 76.0938 59.2758 82.5863 59.2758C82.6182 59.2788 82.6503 59.2738 82.6798 59.2612C82.7092 59.2486 82.735 59.2288 82.7549 59.2036C82.7747 59.1785 82.7879 59.1488 82.7933 59.1172C82.7986 59.0856 82.796 59.0532 82.7856 59.0229C82.1111 55.8418 82.1801 55.8264 81.9501 55.8341C76.5844 55.9567 76.7684 55.9108 76.7454 56.1484ZM84.2344 59.2375H86.442C86.4902 59.2377 86.5368 59.2196 86.5723 59.1869C86.6079 59.1542 86.6297 59.1093 86.6336 59.0612C86.9555 55.5428 86.9632 55.7651 86.8712 55.6731C86.7792 55.5811 87.0092 55.6041 83.4295 55.8188C83.4019 55.8213 83.3752 55.8297 83.3512 55.8435C83.3272 55.8573 83.3065 55.8761 83.2904 55.8987C83.2744 55.9213 83.2635 55.9471 83.2584 55.9743C83.2532 56.0015 83.2541 56.0295 83.2609 56.0564C84.104 59.3295 84.0274 59.2375 84.2344 59.2375ZM54.6999 26.108C51.8408 28.2467 51.4422 28.4536 51.4268 28.7219C51.4268 29.1282 52.9599 30.5003 53.0136 30.5156C53.0562 30.5389 53.1052 30.5476 53.1532 30.5404C53.2012 30.5332 53.2455 30.5105 53.2794 30.4758C53.3133 30.441 53.3349 30.3961 53.3409 30.3479C53.3468 30.2998 53.3369 30.251 53.3125 30.209C53.0749 29.8947 52.4923 29.1052 52.3084 28.8446C52.684 28.4766 54.2783 27.1275 55.0295 26.545C55.3055 26.3303 54.9759 25.9011 54.6999 26.108ZM65.5233 25.9087C65.4762 25.8718 65.4174 25.8527 65.3575 25.855C65.2976 25.8574 65.2405 25.8808 65.1963 25.9213C65.1522 25.9618 65.1238 26.0167 65.1163 26.0762C65.1088 26.1356 65.1227 26.1958 65.1554 26.246C65.8419 27.1627 66.4643 28.1257 67.0181 29.1282C67.0181 29.2048 65.8989 30.5693 65.4467 31.2668C65.4157 31.312 65.4032 31.3674 65.4117 31.4216C65.4203 31.4758 65.4493 31.5246 65.4927 31.5581C65.5361 31.5898 65.5884 31.607 65.6422 31.607C65.6959 31.607 65.7483 31.5898 65.7916 31.5581C66.2209 31.1058 67.4397 29.7184 67.6083 29.4578C68.0682 28.7142 66.5965 27.0739 65.5233 25.9087ZM57.927 26.4377C57.7921 26.3938 57.6494 26.3793 57.5084 26.3951C57.3674 26.4108 57.2314 26.4565 57.1094 26.5291C56.9875 26.6017 56.8825 26.6994 56.8014 26.8159C56.7203 26.9323 56.6651 27.0647 56.6393 27.2042C56.5773 27.7974 56.5517 28.3939 56.5626 28.9902H55.7961C55.7202 29.002 55.651 29.0406 55.6011 29.0989C55.5511 29.1572 55.5237 29.2315 55.5237 29.3083C55.5237 29.3851 55.5511 29.4594 55.6011 29.5177C55.651 29.5761 55.7202 29.6146 55.7961 29.6264L56.6009 29.7491C56.5957 30.1595 56.6239 30.5697 56.6852 30.9755C56.7542 31.3894 57.3368 31.3051 57.3828 30.9219C57.4135 30.5546 57.4135 30.1853 57.3828 29.8181C57.7431 29.8181 58.0957 29.8181 58.1493 29.4654C58.203 29.1128 57.7431 29.0592 57.3828 29.0285C57.3138 27.4341 57.4748 27.1965 57.5054 27.1582C57.7124 26.9972 58.042 27.1582 57.7354 27.6411C57.6996 27.6942 57.6859 27.7592 57.6974 27.8222C57.7088 27.8853 57.7445 27.9413 57.7967 27.9784C58.1647 28.2543 58.7549 26.8286 57.927 26.4377ZM60.4336 28.8982C60.1018 28.9211 59.7689 28.9211 59.4371 28.8982C59.372 28.8982 59.3097 28.9241 59.2636 28.9701C59.2176 29.0161 59.1918 29.0785 59.1918 29.1435C59.1918 29.2086 59.2176 29.271 59.2636 29.317C59.3097 29.363 59.372 29.3888 59.4371 29.3888L60.2036 29.4884C60.6252 29.5498 60.3953 29.3811 60.5102 30.4006C60.5102 30.5084 60.553 30.6117 60.6292 30.6879C60.7054 30.7641 60.8088 30.8069 60.9165 30.8069C61.0242 30.8069 61.1276 30.7641 61.2038 30.6879C61.28 30.6117 61.3228 30.5084 61.3228 30.4006C61.3183 30.1443 61.3004 29.8885 61.2691 29.6341H61.706C61.8077 29.6341 61.9052 29.5937 61.977 29.5218C62.0489 29.45 62.0893 29.3525 62.0893 29.2508C62.0893 29.1492 62.0489 29.0517 61.977 28.9798C61.9052 28.9079 61.8077 28.8676 61.706 28.8676C61.0698 28.8676 61.1618 28.9135 61.1465 28.7909C61.0851 28.4383 61.0238 28.078 60.9932 27.7254C60.9932 27.6604 60.9673 27.598 60.9213 27.552C60.8753 27.506 60.8129 27.4801 60.7479 27.4801C60.6828 27.4801 60.6204 27.506 60.5744 27.552C60.5284 27.598 60.5026 27.6604 60.5026 27.7254C60.4642 28.216 60.4336 28.7143 60.4336 28.8982Z" fill="black"/>
<path d="M64.3888 28.7448C64.3497 28.4267 64.3267 28.1069 64.3198 27.7866C64.3095 27.728 64.2788 27.675 64.2333 27.6367C64.1877 27.5985 64.1301 27.5775 64.0707 27.5775C64.0112 27.5775 63.9536 27.5985 63.908 27.6367C63.8625 27.675 63.8319 27.728 63.8215 27.7866C63.8215 28.1315 63.7756 28.4535 63.7449 28.7984C63.4513 28.8167 63.1569 28.8167 62.8634 28.7984C62.7952 28.8096 62.7332 28.8446 62.6885 28.8973C62.6438 28.9499 62.6192 29.0168 62.6192 29.0859C62.6192 29.155 62.6438 29.2218 62.6885 29.2745C62.7332 29.3271 62.7952 29.3622 62.8634 29.3733C63.147 29.3733 63.4076 29.4193 63.6989 29.4423C63.6376 30.1169 63.5763 30.7991 64.0898 30.7991C64.6034 30.7991 64.5421 30.1092 64.4808 29.473C64.9024 29.473 65.4543 29.473 65.4389 29.0744C65.4236 28.6758 64.8334 28.7064 64.3888 28.7448ZM48.8129 33.2443C47.847 33.4973 47.2798 34.4554 47.1878 35.7968C47.1495 36.9083 47.4638 38.3187 46.4903 38.9703C46.4228 39.0155 46.37 39.0796 46.3387 39.1545C46.3073 39.2295 46.2987 39.3121 46.314 39.3919C46.452 40.0664 47.6631 39.1006 47.4178 41.9674C47.3252 42.332 47.3273 42.7142 47.4239 43.0778C47.5205 43.4413 47.7083 43.7742 47.9697 44.0447C48.2113 44.2159 48.4888 44.3298 48.781 44.3776C49.0732 44.4254 49.3725 44.4059 49.6561 44.3207C49.7088 44.3072 49.7556 44.2765 49.789 44.2334C49.8224 44.1904 49.8405 44.1375 49.8405 44.083C49.8405 44.0286 49.8224 43.9757 49.789 43.9326C49.7556 43.8896 49.7088 43.8589 49.6561 43.8454C49.1272 43.7688 48.5139 43.8454 48.238 43.3932C48.004 42.7728 47.9691 42.0949 48.1383 41.4538C48.2151 41.0415 48.1904 40.6166 48.0662 40.2159C47.942 39.8153 47.7221 39.4509 47.4255 39.1543C48.7362 37.5522 47.0652 34.3711 48.9585 33.7272C49.0078 33.6972 49.0456 33.6516 49.0662 33.5978C49.0868 33.5439 49.089 33.4847 49.0723 33.4295C49.0556 33.3743 49.0211 33.3261 48.9742 33.2926C48.9273 33.2591 48.8705 33.2421 48.8129 33.2443ZM58.4328 33.7885C57.8579 33.1523 57.0531 33.4589 56.4399 33.3516C56.4041 33.3441 56.3673 33.3436 56.3313 33.3503C56.2954 33.357 56.2612 33.3707 56.2306 33.3907C56.2 33.4106 56.1736 33.4364 56.153 33.4665C56.1323 33.4966 56.1178 33.5305 56.1102 33.5662C56.1027 33.602 56.1023 33.6389 56.109 33.6748C56.1157 33.7107 56.1294 33.7449 56.1493 33.7755C56.1692 33.8061 56.195 33.8325 56.2251 33.8531C56.2552 33.8738 56.2891 33.8883 56.3249 33.8959C56.9688 34.0185 57.6893 33.8345 57.9576 34.4171C58.4635 35.5362 57.306 38.426 58.3025 39.6525C57.4133 40.7333 58.4712 42.4427 57.674 43.2169C57.3749 43.4815 56.9844 43.619 56.5855 43.6001C56.5261 43.5896 56.4649 43.6014 56.4136 43.6331C56.3624 43.6649 56.3246 43.7144 56.3075 43.7722C56.2904 43.8301 56.2953 43.8922 56.3211 43.9467C56.3469 44.0012 56.3919 44.0443 56.4475 44.0677C56.6685 44.1393 56.9013 44.1664 57.1328 44.1477C57.3643 44.129 57.5898 44.0647 57.7963 43.9586C58.0029 43.8524 58.1864 43.7066 58.3364 43.5293C58.4865 43.352 58.6 43.1469 58.6705 42.9256C58.7729 42.4765 58.7729 42.0102 58.6705 41.5612C58.4175 39.7292 59.1994 40.2274 59.2147 39.6832C59.23 39.1389 58.5018 39.5605 58.6321 37.9738C58.8391 35.8965 59.1074 34.5321 58.4328 33.7885Z" fill="black"/>
<path d="M50.7228 36.8548C50.4778 36.839 50.2332 36.8906 50.0156 37.0041C49.798 37.1177 49.6158 37.2887 49.4886 37.4987C49.3083 37.6669 49.1741 37.8785 49.099 38.1134C49.0238 38.3483 49.0102 38.5985 49.0594 38.8401C49.2279 39.217 49.5212 39.5241 49.8898 39.7099C50.2585 39.8956 50.6799 39.9485 51.083 39.8596C50.9067 40.6261 50.6998 40.9787 49.7109 40.7794C49.6422 40.7751 49.5741 40.7953 49.5188 40.8365C49.4635 40.8776 49.4246 40.937 49.409 41.0041C49.3934 41.0712 49.402 41.1417 49.4335 41.203C49.4649 41.2643 49.517 41.3125 49.5806 41.339C50.4851 41.5536 51.3436 41.339 51.6196 40.4805C52.4781 38.3265 51.6196 37.0311 50.7228 36.8548ZM50.4391 39.1544C49.9409 38.9781 49.8182 38.7711 49.7799 38.6178C49.7416 38.4645 49.8489 38.1886 50.0635 37.9356C50.2782 37.6827 50.4161 37.5064 50.6308 37.5907C51.4433 37.9356 51.359 39.4993 50.4391 39.1774V39.1544ZM54.3561 38.7251C53.0607 38.4952 52.2635 40.0282 52.8231 40.7488C53.092 41.0101 53.4522 41.1562 53.8272 41.1562C54.2022 41.1562 54.5624 41.0101 54.8314 40.7488C54.8314 40.9404 54.8314 41.155 54.8773 41.27C54.8791 41.323 54.9005 41.3735 54.9373 41.4118C54.9741 41.45 55.0237 41.4732 55.0766 41.477C55.1302 41.477 55.1817 41.4563 55.2203 41.4191C55.2589 41.3819 55.2816 41.3312 55.2836 41.2777C55.2836 40.9864 55.4216 39.668 55.3909 39.576C55.3154 39.3515 55.1784 39.1527 54.9954 39.0023C54.8125 38.8519 54.591 38.7558 54.3561 38.7251ZM54.6627 39.6526C54.6627 39.8826 54.3791 40.2505 54.2411 40.3272C53.8579 40.5341 53.4746 40.5188 53.3826 40.3808C53.2906 40.2429 53.5896 39.392 54.0572 39.392C54.2335 39.392 54.6244 39.4687 54.6627 39.6526ZM99.7271 27.4648C98.6156 27.2655 97.5731 28.6836 98.01 29.8794C98.1122 30.2245 98.3325 30.5227 98.6324 30.7217C98.9323 30.9207 99.2927 31.0078 99.6504 30.9678C101.766 30.7456 101.329 27.7637 99.7271 27.4648ZM99.6504 30.1936C98.6769 30.4236 98.332 29.1895 98.8839 28.4766C98.9584 28.3691 99.0566 28.2801 99.1709 28.2163C99.2851 28.1525 99.4124 28.1157 99.5431 28.1087C99.7265 28.1417 99.8996 28.2171 100.049 28.3289C100.198 28.4407 100.319 28.5858 100.402 28.7526C100.493 29.0433 100.465 29.3584 100.324 29.6286C100.183 29.8988 99.941 30.102 99.6504 30.1936ZM104.081 27.7101C104.012 28.262 103.567 30.3163 103.56 30.8529C103.57 30.941 103.61 31.0231 103.672 31.0862C103.734 31.1494 103.816 31.1898 103.904 31.2013C103.992 31.2127 104.081 31.1945 104.158 31.1494C104.234 31.1043 104.294 31.0351 104.326 30.9525C104.449 30.4159 104.526 28.2927 104.587 27.7637C104.648 27.4188 104.127 27.3805 104.081 27.7101ZM101.751 30.6996C101.704 30.6859 101.654 30.6826 101.606 30.6899C101.557 30.6972 101.511 30.715 101.47 30.742C101.43 30.7689 101.395 30.8045 101.369 30.8462C101.344 30.8878 101.327 30.9346 101.321 30.9832C101.252 31.6117 100.501 31.8034 100.739 32.133C100.772 32.1811 100.821 32.2155 100.878 32.2297C100.934 32.2438 100.994 32.2367 101.045 32.2096C101.271 32.1074 101.473 31.9591 101.638 31.7743C101.803 31.5895 101.928 31.3722 102.004 31.1365C102.016 31.0912 102.02 31.0438 102.014 30.9971C102.008 30.9504 101.993 30.9054 101.969 30.8647C101.946 30.824 101.914 30.7884 101.877 30.76C101.839 30.7317 101.796 30.7111 101.751 30.6996ZM96.385 30.14C96.385 29.9692 96.3171 29.8054 96.1964 29.6847C96.0756 29.5639 95.9119 29.4961 95.7411 29.4961C95.5703 29.4961 95.4066 29.5639 95.2858 29.6847C95.165 29.8054 95.0972 29.9692 95.0972 30.14C95.0972 30.3108 95.165 30.4745 95.2858 30.5953C95.4066 30.716 95.5703 30.7839 95.7411 30.7839C95.9119 30.7839 96.0756 30.716 96.1964 30.5953C96.3171 30.4745 96.385 30.3108 96.385 30.14ZM77.7966 40.0052C77.7966 40.176 77.8645 40.3398 77.9852 40.4605C78.106 40.5813 78.2697 40.6491 78.4405 40.6491C78.6113 40.6491 78.775 40.5813 78.8958 40.4605C79.0166 40.3398 79.0844 40.176 79.0844 40.0052C79.0844 39.8345 79.0166 39.6707 78.8958 39.5499C78.775 39.4292 78.6113 39.3614 78.4405 39.3614C78.2697 39.3614 78.106 39.4292 77.9852 39.5499C77.8645 39.6707 77.7966 39.8345 77.7966 40.0052ZM39.0945 59.7894C39.1043 59.6995 39.0951 59.6085 39.0675 59.5223C39.0398 59.4362 38.9943 59.3568 38.9339 59.2895C38.8735 59.2221 38.7996 59.1682 38.717 59.1313C38.6344 59.0944 38.5449 59.0754 38.4544 59.0754C38.364 59.0754 38.2745 59.0944 38.1919 59.1313C38.1093 59.1682 38.0354 59.2221 37.975 59.2895C37.9146 59.3568 37.8691 59.4362 37.8414 59.5223C37.8137 59.6085 37.8045 59.6995 37.8144 59.7894C37.8045 59.8793 37.8137 59.9703 37.8414 60.0565C37.8691 60.1426 37.9146 60.222 37.975 60.2893C38.0354 60.3567 38.1093 60.4106 38.1919 60.4475C38.2745 60.4844 38.364 60.5034 38.4544 60.5034C38.5449 60.5034 38.6344 60.4844 38.717 60.4475C38.7996 60.4106 38.8735 60.3567 38.9339 60.2893C38.9943 60.222 39.0398 60.1426 39.0675 60.0565C39.0951 59.9703 39.1043 59.8793 39.0945 59.7894ZM43.617 59.2452C43.617 59.4159 43.6849 59.5797 43.8056 59.7005C43.9264 59.8212 44.0901 59.889 44.2609 59.889C44.4317 59.889 44.5954 59.8212 44.7162 59.7005C44.8369 59.5797 44.9048 59.4159 44.9048 59.2452C44.9048 59.0744 44.8369 58.9106 44.7162 58.7899C44.5954 58.6691 44.4317 58.6013 44.2609 58.6013C44.0901 58.6013 43.9264 58.6691 43.8056 58.7899C43.6849 58.9106 43.617 59.0744 43.617 59.2452ZM73.4734 57.7428C73.3137 57.7602 73.1662 57.8359 73.0589 57.9554C72.9517 58.075 72.8924 58.2299 72.8924 58.3905C72.8924 58.5511 72.9517 58.706 73.0589 58.8255C73.1662 58.9451 73.3137 59.0208 73.4734 59.0382C73.633 59.0208 73.7806 58.9451 73.8878 58.8255C73.9951 58.706 74.0544 58.5511 74.0544 58.3905C74.0544 58.2299 73.9951 58.075 73.8878 57.9554C73.7806 57.8359 73.633 57.7602 73.4734 57.7428ZM80.9624 40.3732C81.0475 40.3753 81.1322 40.3601 81.2113 40.3284C81.2903 40.2968 81.3622 40.2495 81.4224 40.1893C81.4826 40.1291 81.5299 40.0572 81.5615 39.9782C81.5932 39.8991 81.6084 39.8144 81.6063 39.7293C81.5889 39.5697 81.5132 39.4221 81.3936 39.3148C81.2741 39.2076 81.1191 39.1483 80.9586 39.1483C80.798 39.1483 80.643 39.2076 80.5235 39.3148C80.404 39.4221 80.3282 39.5697 80.3108 39.7293C80.3087 39.8151 80.3241 39.9004 80.3562 39.98C80.3883 40.0596 80.4363 40.1318 80.4974 40.1921C80.5584 40.2525 80.6312 40.2996 80.7111 40.3308C80.7911 40.3619 80.8766 40.3763 80.9624 40.3732ZM39.6464 23.1109C39.7845 23.0948 39.9119 23.0285 40.0043 22.9246C40.0967 22.8207 40.1478 22.6865 40.1478 22.5475C40.1478 22.4085 40.0967 22.2743 40.0043 22.1704C39.9119 22.0665 39.7845 22.0002 39.6464 21.9841C39.5083 22.0002 39.3809 22.0665 39.2885 22.1704C39.196 22.2743 39.145 22.4085 39.145 22.5475C39.145 22.6865 39.196 22.8207 39.2885 22.9246C39.3809 23.0285 39.5083 23.0948 39.6464 23.1109ZM42.4749 23.1109C42.613 23.0948 42.7404 23.0285 42.8328 22.9246C42.9252 22.8207 42.9763 22.6865 42.9763 22.5475C42.9763 22.4085 42.9252 22.2743 42.8328 22.1704C42.7404 22.0665 42.613 22.0002 42.4749 21.9841C42.3368 22.0002 42.2094 22.0665 42.117 22.1704C42.0245 22.2743 41.9735 22.4085 41.9735 22.5475C41.9735 22.6865 42.0245 22.8207 42.117 22.9246C42.2094 23.0285 42.3368 23.0948 42.4749 23.1109ZM45.5333 23.1032C45.6714 23.0871 45.7988 23.0208 45.8912 22.9169C45.9837 22.8131 46.0347 22.6789 46.0347 22.5398C46.0347 22.4008 45.9837 22.2666 45.8912 22.1627C45.7988 22.0589 45.6714 21.9926 45.5333 21.9764C45.3952 21.9926 45.2679 22.0589 45.1754 22.1627C45.083 22.2666 45.0319 22.4008 45.0319 22.5398C45.0319 22.6789 45.083 22.8131 45.1754 22.9169C45.2679 23.0208 45.3952 23.0871 45.5333 23.1032ZM42.7202 54.6153C42.7402 54.5747 42.7493 54.5296 42.7466 54.4844C42.7438 54.4392 42.7294 54.3955 42.7046 54.3576C42.6799 54.3197 42.6457 54.2889 42.6054 54.2682C42.5651 54.2475 42.5201 54.2377 42.4749 54.2397C42.2756 54.2397 42.2373 54.4467 42.084 54.7456C41.0185 56.8612 39.5851 59.7281 39.4777 60.1113C39.4492 60.1925 39.4527 60.2814 39.4876 60.36C39.5225 60.4387 39.5861 60.501 39.6654 60.5343C39.7447 60.5676 39.8337 60.5693 39.9142 60.5391C39.9948 60.509 40.0607 60.4492 40.0986 60.372C40.3669 59.9504 42.4519 55.1289 42.7202 54.6153ZM44.8895 53.9101C44.8666 53.8703 44.8337 53.8372 44.794 53.8142C44.7543 53.7912 44.7092 53.7791 44.6633 53.7791C44.6174 53.7791 44.5724 53.7912 44.5327 53.8142C44.4929 53.8372 44.46 53.8703 44.4372 53.9101C43.1724 56.5393 41.2408 60.2876 41.1641 60.5789C41.1528 60.633 41.1536 60.6888 41.1664 60.7425C41.1792 60.7963 41.2036 60.8465 41.238 60.8897C41.2724 60.9329 41.3159 60.9679 41.3654 60.9924C41.4149 61.0168 41.4692 61.0301 41.5244 61.0312C41.8233 61.0312 41.923 60.9315 44.5292 55.0062C44.8971 54.2014 45.0044 54.0864 44.8895 53.9101ZM68.077 60.3336C67.3291 59.2485 66.9028 57.9742 66.8472 56.6574C66.7916 55.3407 67.109 54.035 67.7627 52.8906C67.7993 52.8357 67.8126 52.7686 67.7997 52.7039C67.7867 52.6392 67.7486 52.5823 67.6937 52.5457C67.6389 52.5091 67.5717 52.4958 67.507 52.5087C67.4423 52.5217 67.3854 52.5598 67.3488 52.6147C66.461 53.7757 66.0118 55.213 66.0806 56.673C66.1493 58.133 66.7315 59.5217 67.7244 60.5943C67.7639 60.6229 67.8116 60.6383 67.8605 60.6381C67.9093 60.6379 67.9568 60.6221 67.9961 60.593C68.0354 60.564 68.0644 60.5232 68.079 60.4766C68.0935 60.4299 68.0928 60.3799 68.077 60.3336Z" fill="black"/>
<path d="M74.4473 52.078C73.9107 52.2849 75.0452 52.9211 74.8689 56.5775C74.7156 59.6436 73.5734 60.6171 73.7574 60.9237C73.7772 60.9522 73.8035 60.9754 73.8342 60.9915C73.8649 61.0076 73.8991 61.0159 73.9337 61.0159C73.9684 61.0159 74.0025 61.0076 74.0332 60.9915C74.0639 60.9754 74.0902 60.9522 74.11 60.9237C74.9277 59.6372 75.4162 58.1692 75.5325 56.6493C75.6488 55.1294 75.3893 53.6042 74.7769 52.2083C74.75 52.1477 74.7004 52.1001 74.6387 52.0757C74.5771 52.0514 74.5083 52.0522 74.4473 52.078ZM68.2844 56.4319C67.0426 57.321 68.0927 58.7314 69.3575 58.3788V60.4561C69.3575 60.7704 69.0356 60.9314 68.8439 60.6631C68.8071 60.6135 68.7529 60.5796 68.6921 60.5682C68.6314 60.5568 68.5686 60.5688 68.5163 60.6017C68.464 60.6347 68.4261 60.6861 68.4101 60.7458C68.3941 60.8055 68.4012 60.8691 68.43 60.9237C68.5215 61.0739 68.6584 61.1911 68.821 61.2582C68.9835 61.3254 69.1632 61.339 69.3341 61.2972C69.5049 61.2553 69.6579 61.1602 69.771 61.0255C69.8841 60.8908 69.9514 60.7236 69.9631 60.5481C69.9631 60.3028 70.2007 56.9454 69.8864 56.5392C69.7889 56.4259 69.6699 56.3332 69.5362 56.2664C69.4026 56.1997 69.2569 56.1601 69.1079 56.1501C68.9588 56.1401 68.8092 56.1599 68.6678 56.2083C68.5264 56.2566 68.3961 56.3326 68.2844 56.4319ZM69.1812 56.9148C69.2643 56.9998 69.3162 57.1104 69.3287 57.2286C69.3413 57.3468 69.3136 57.4658 69.2502 57.5663C69.0816 57.7503 68.4837 57.689 68.3994 57.3823C68.315 57.0757 68.9053 56.7231 69.1812 56.9148ZM71.5115 56.3015C71.2477 56.3542 71.0084 56.4916 70.8299 56.6928C70.6515 56.894 70.5436 57.148 70.5228 57.4162C70.502 57.6843 70.5693 57.9519 70.7146 58.1783C70.8598 58.4046 71.0751 58.5773 71.3275 58.6701C71.5363 58.7483 71.7647 58.7569 71.9788 58.6948C72.1929 58.6326 72.3812 58.503 72.5156 58.3252C72.543 58.277 72.5538 58.2212 72.5464 58.1663C72.539 58.1114 72.5138 58.0604 72.4746 58.0213C72.4354 57.9821 72.3845 57.9568 72.3296 57.9494C72.2747 57.942 72.2188 57.9528 72.1707 57.9802C71.9637 58.1029 71.2355 58.1029 71.1819 57.505C71.1694 57.3864 71.1935 57.2669 71.2511 57.1625C71.3087 57.0581 71.397 56.9739 71.504 56.9212C71.6109 56.8686 71.7315 56.85 71.8493 56.868C71.9672 56.8861 72.0767 56.9398 72.163 57.0221C72.2169 57.0729 72.2887 57.1002 72.3628 57.0981C72.4368 57.0959 72.507 57.0645 72.5578 57.0106C72.6086 56.9567 72.6359 56.8849 72.6338 56.8108C72.6316 56.7368 72.6002 56.6666 72.5463 56.6158C72.4117 56.4842 72.2474 56.387 72.0673 56.3323C71.8872 56.2776 71.6965 56.267 71.5115 56.3015ZM34.994 23.3024C35.0698 23.3271 35.1515 23.3271 35.2273 23.3023C35.3031 23.2775 35.369 23.2292 35.4155 23.1644C35.5918 22.9268 36.0978 20.7499 36.2511 20.2286C36.2714 20.1625 36.2646 20.0911 36.2323 20.03C36.2 19.9689 36.1447 19.9232 36.0786 19.9028C36.0125 19.8825 35.9411 19.8893 35.88 19.9216C35.8189 19.9539 35.7731 20.0092 35.7528 20.0753C35.0169 22.2293 34.4114 23.1184 34.994 23.3024ZM57.5759 93.9305C56.9474 94.642 56.2767 95.3152 55.5676 95.9465C55.5285 95.985 55.4974 96.031 55.4761 96.0816C55.4549 96.1323 55.444 96.1867 55.444 96.2416C55.444 96.2965 55.4549 96.3509 55.4761 96.4016C55.4974 96.4523 55.5285 96.4982 55.5676 96.5367C56.1579 97.0656 56.7788 97.5485 57.346 98.0698C57.3877 98.1021 57.4389 98.1197 57.4916 98.1197C57.5444 98.1197 57.5956 98.1021 57.6373 98.0698C57.6703 98.0299 57.6884 97.9798 57.6884 97.928C57.6884 97.8762 57.6703 97.826 57.6373 97.7862C57.231 97.2573 56.8247 96.736 56.3955 96.2531C56.9867 95.639 57.53 94.9804 58.0205 94.2831C58.2582 93.9842 57.7906 93.6546 57.5759 93.9305ZM83.5537 96.759C83.6456 96.759 83.5537 96.759 84.5425 96.1075C86.3745 94.8197 86.5585 94.7354 86.5048 94.3674C86.4358 93.8309 85.7383 93.7466 83.8603 92.8344C83.7891 92.7947 83.7051 92.785 83.6268 92.8073C83.5484 92.8295 83.4822 92.882 83.4425 92.9532C83.4029 93.0243 83.3931 93.1083 83.4154 93.1867C83.4377 93.265 83.4902 93.3313 83.5613 93.371C83.9139 93.5703 85.0254 94.2678 85.4547 94.5284C84.3432 95.5709 83.4004 96.4371 83.4004 96.4371C83.3802 96.4669 83.3682 96.5015 83.3655 96.5374C83.3628 96.5733 83.3696 96.6093 83.385 96.6418C83.4005 96.6744 83.4242 96.7023 83.4538 96.7228C83.4834 96.7434 83.5178 96.7558 83.5537 96.759ZM78.0193 95.4483C79.0465 95.4483 80.02 95.2796 81.0088 95.2336C81.0799 95.2336 81.1482 95.2054 81.1985 95.155C81.2488 95.1047 81.2771 95.0365 81.2771 94.9653C81.2771 94.8942 81.2488 94.8259 81.1985 94.7756C81.1482 94.7253 81.0799 94.6971 81.0088 94.6971C80.0046 94.6971 79.0465 94.5361 78.0193 94.6051C77.9075 94.6051 77.8003 94.6495 77.7212 94.7286C77.6421 94.8076 77.5977 94.9148 77.5977 95.0267C77.5977 95.1385 77.6421 95.2457 77.7212 95.3248C77.8003 95.4038 77.9075 95.4483 78.0193 95.4483ZM72.324 95.6629C72.8146 95.6629 74.9302 95.4406 75.1602 95.4253C75.2293 95.4253 75.2956 95.3978 75.3444 95.3489C75.3933 95.3 75.4208 95.2338 75.4208 95.1646C75.4208 95.0955 75.3933 95.0292 75.3444 94.9804C75.2956 94.9315 75.2293 94.904 75.1602 94.904C74.9302 94.904 72.8146 94.766 72.324 94.8274C72.2229 94.8411 72.1303 94.891 72.0632 94.9678C71.9961 95.0446 71.9591 95.1431 71.9591 95.2451C71.9591 95.3471 71.9961 95.4456 72.0632 95.5225C72.1303 95.5993 72.2229 95.6492 72.324 95.6629ZM65.3792 95.1723C65.3259 95.1733 65.2732 95.1848 65.2243 95.2061C65.1754 95.2275 65.1312 95.2583 65.0942 95.2967C65.0572 95.3351 65.0281 95.3805 65.0086 95.4302C64.9891 95.4798 64.9796 95.5329 64.9806 95.5862C64.9806 96.0385 65.4482 96.0155 65.7472 96.0155C66.6272 95.9752 67.5047 95.8908 68.3764 95.7625C68.4445 95.7514 68.5065 95.7163 68.5513 95.6637C68.596 95.611 68.6205 95.5442 68.6205 95.4751C68.6205 95.406 68.596 95.3392 68.5513 95.2865C68.5065 95.2338 68.4445 95.1988 68.3764 95.1876C67.8628 95.226 65.8698 95.157 65.3792 95.1723ZM62.2901 95.5939C61.7229 95.5939 59.5613 95.4942 59.0094 95.5939C58.9077 95.5939 58.8102 95.6343 58.7383 95.7061C58.6665 95.778 58.6261 95.8755 58.6261 95.9772C58.6261 96.0788 58.6665 96.1763 58.7383 96.2482C58.8102 96.32 58.9077 96.3604 59.0094 96.3604C59.5843 96.4371 61.7305 96.2224 62.2901 96.1995C62.3704 96.1995 62.4474 96.1676 62.5042 96.1108C62.561 96.054 62.5929 95.977 62.5929 95.8967C62.5929 95.8164 62.561 95.7394 62.5042 95.6826C62.4474 95.6258 62.3704 95.5939 62.2901 95.5939ZM32.6407 11.7278C32.463 11.5061 32.2319 11.3332 31.9691 11.2252C31.7063 11.1172 31.4204 11.0777 31.1381 11.1104C30.8559 11.143 30.5865 11.2468 30.3553 11.4119C30.1241 11.5771 29.9386 11.7982 29.8162 12.0546C29.6938 12.311 29.6384 12.5942 29.6553 12.8778C29.6722 13.1615 29.7608 13.4361 29.9129 13.6762C30.0649 13.9162 30.2754 14.1137 30.5245 14.2502C30.7737 14.3867 31.0535 14.4577 31.3376 14.4566C31.656 14.4616 31.9692 14.3751 32.2398 14.2073C32.5105 14.0395 32.7273 13.7976 32.8646 13.5102C33.0018 13.2229 33.0536 12.9022 33.014 12.5862C32.9743 12.2702 32.8447 11.9723 32.6407 11.7278ZM32.2191 13.2608C32.1225 13.4411 31.972 13.5866 31.7886 13.6771C31.6052 13.7676 31.3982 13.7986 31.1963 13.7657C30.9945 13.7327 30.808 13.6375 30.6629 13.4934C30.5178 13.3493 30.4214 13.1635 30.3871 12.9619C30.3503 12.8173 30.3464 12.6663 30.3758 12.52C30.4052 12.3737 30.467 12.2359 30.5568 12.1167C30.6466 11.9975 30.7619 11.9 30.8944 11.8313C31.0269 11.7627 31.1731 11.7247 31.3223 11.7201C31.4961 11.7348 31.6638 11.7916 31.8107 11.8857C31.9576 11.9798 32.0794 12.1083 32.1655 12.26C32.2516 12.4118 32.2994 12.5823 32.3047 12.7567C32.31 12.931 32.2728 13.1041 32.1961 13.2608H32.2191ZM39.8614 11.9194C39.6405 11.6306 39.331 11.4222 38.9804 11.326C38.6297 11.2298 38.2572 11.2512 37.9198 11.3868C37.5825 11.5225 37.2988 11.7649 37.1124 12.0771C36.9259 12.3892 36.8468 12.7539 36.8873 13.1152C36.9215 13.4772 37.0703 13.8189 37.312 14.0906C37.5538 14.3623 37.8758 14.5498 38.2314 14.6259C38.5871 14.702 38.9577 14.6626 39.2894 14.5137C39.6211 14.3647 39.8967 14.1138 40.076 13.7974C40.2103 13.4935 40.2612 13.1594 40.2234 12.8293C40.1857 12.4992 40.0608 12.1852 39.8614 11.9194ZM38.0217 12.0804C38.2133 11.9544 38.4433 11.9007 38.6708 11.9288C38.8983 11.9569 39.1084 12.0649 39.2635 12.2337C39.4064 12.4019 39.4981 12.6075 39.528 12.8261C39.5579 13.0448 39.5246 13.2674 39.4322 13.4678C39.3343 13.64 39.187 13.7788 39.0093 13.8662C38.8316 13.9537 38.6318 13.9858 38.4357 13.9584C38.2323 13.924 38.0438 13.83 37.8939 13.6884C37.744 13.5468 37.6394 13.3639 37.5935 13.1628C37.5475 12.9618 37.5622 12.7516 37.6357 12.559C37.7092 12.3663 37.8382 12.1997 38.0064 12.0804H38.0217ZM47.0591 12.1187C46.8816 11.8973 46.6508 11.7245 46.3884 11.6165C46.126 11.5085 45.8404 11.4688 45.5585 11.5011C45.2765 11.5334 45.0073 11.6366 44.7761 11.8012C44.5449 11.9657 44.3592 12.1862 44.2363 12.442C44.1134 12.6978 44.0574 12.9806 44.0735 13.264C44.0896 13.5473 44.1772 13.822 44.3282 14.0622C44.4793 14.3025 44.6887 14.5006 44.9371 14.6379C45.1855 14.7752 45.4646 14.8474 45.7484 14.8476C46.0674 14.854 46.3816 14.7686 46.6535 14.6014C46.9253 14.4342 47.1433 14.1924 47.2815 13.9047C47.4196 13.6171 47.4722 13.2957 47.4327 12.9791C47.3933 12.6624 47.2636 12.3637 47.0591 12.1187ZM46.6299 13.6518C46.5389 13.7977 46.412 13.9178 46.2613 14.0006C46.1106 14.0834 45.9412 14.1262 45.7692 14.1247C45.5973 14.1232 45.4286 14.0777 45.2793 13.9923C45.13 13.9069 45.0051 13.7847 44.9167 13.6372C44.8282 13.4898 44.7791 13.3221 44.774 13.1502C44.7689 12.9783 44.8081 12.808 44.8877 12.6556C44.9674 12.5032 45.0848 12.3738 45.2288 12.2798C45.3728 12.1858 45.5385 12.1303 45.7101 12.1187C45.8876 12.1249 46.0608 12.1754 46.2139 12.2657C46.367 12.3559 46.495 12.483 46.5864 12.6354C46.6779 12.7877 46.7297 12.9605 46.7373 13.138C46.7449 13.3156 46.708 13.4922 46.6299 13.6518Z" fill="black"/>
<path d="M112.428 24.8892C112.646 24.4427 112.747 23.9476 112.72 23.4512C112.693 22.9547 112.54 22.4734 112.274 22.053C111.653 21.1332 110.404 21.1639 109.4 21.1869C106.295 21.2635 33.4213 19.0329 33.3447 19.0252C32.9003 18.918 32.4317 18.9838 32.0339 19.2092C30.8151 20.0984 30.8535 23.2641 32.2256 24.0613C32.6312 24.2442 33.0812 24.3054 33.521 24.2376L110.051 26.2843C110.535 26.2827 111.01 26.1527 111.428 25.9077C111.845 25.6626 112.19 25.3111 112.428 24.8892ZM37.6756 19.9987C37.2584 20.9714 36.9126 21.973 36.6408 22.9959C36.6387 23.0414 36.6459 23.0869 36.6619 23.1296C36.6779 23.1724 36.7024 23.2114 36.734 23.2443C36.7655 23.2773 36.8034 23.3035 36.8453 23.3214C36.8873 23.3393 36.9324 23.3485 36.978 23.3485C37.323 23.3485 37.3843 23.0342 37.9056 21.1485C38.1892 20.0907 38.2658 20.0601 38.1278 19.9144C49.1122 20.2593 110.013 21.9534 110.136 21.961C111.079 21.961 111.592 22.2523 111.799 22.7966C111.955 23.1637 111.999 23.569 111.923 23.9608C111.848 24.3526 111.658 24.7132 111.378 24.9965C111.039 25.234 110.657 25.4022 110.253 25.4917C109.849 25.5811 109.432 25.59 109.024 25.5178C104.555 25.3644 32.8081 23.5324 32.7315 23.5171C31.7273 23.2718 31.643 20.9032 32.2562 19.9757C32.4785 19.6461 32.8158 19.6615 33.3447 19.7304C38.3271 19.9757 37.7446 19.7994 37.6756 19.9987ZM62.9098 65.569C62.9098 64.8024 63.5537 65.1397 35.3147 65.8986C35.1526 65.8871 34.9901 65.9144 34.8408 65.9784C34.6915 66.0424 34.5596 66.1412 34.4562 66.2665C34.1649 66.7034 34.6708 90.1899 34.6861 90.4122C34.6901 90.5092 34.7314 90.6008 34.8014 90.668C34.8714 90.7351 34.9647 90.7726 35.0617 90.7725C35.0617 90.7725 38.0742 90.6652 40.7111 90.5885C63.8526 89.9217 63.5537 89.592 63.5307 89.2778C63.4693 88.6875 62.9174 65.9752 62.9098 65.569ZM35.0924 66.7954C35.0924 66.7418 35.238 66.6958 35.3147 66.6881C36.3342 66.6881 61.2387 65.9216 62.1432 65.9216C62.2122 68.2212 62.8561 87.783 62.9098 88.9712C58.9698 89.2241 38.3118 89.9523 35.445 90.0136C34.9927 83.7511 35.0464 67.2553 35.0924 66.7954Z" fill="black"/>
<path d="M36.4041 88.0284C37.002 87.5915 48.2316 78.1478 48.6072 77.8412C51.5737 80.2098 59.9136 86.8709 61.6919 88.312C61.9679 88.5343 62.3205 88.1357 62.0522 87.9058C58.8787 85.2689 50.8148 78.7074 49.1821 77.3583C49.9487 76.7604 59.584 68.6965 60.8104 67.7077C61.071 67.4854 60.7337 67.1021 60.4655 67.3091C57.2997 69.854 49.826 75.8865 48.5842 76.8907C46.208 75.0127 38.535 69.1028 36.6877 67.769C36.6364 67.7392 36.5761 67.729 36.5179 67.7402C36.4596 67.7515 36.4074 67.7834 36.371 67.8302C36.3345 67.8769 36.3162 67.9353 36.3195 67.9945C36.3227 68.0538 36.3473 68.1098 36.3887 68.1523C39.0179 70.2985 47.81 77.2127 48.0093 77.3506C45.4951 79.4433 36.8333 86.733 36.0208 87.5531C35.9578 87.604 35.9175 87.6777 35.9089 87.7582C35.9003 87.8388 35.924 87.9194 35.9748 87.9824C36.0256 88.0454 36.0994 88.0857 36.1799 88.0943C36.2604 88.1029 36.341 88.0792 36.4041 88.0284ZM91.3336 85.3379C88.7964 83.2529 83.5227 78.6691 82.5185 77.7952C84.7645 75.8176 91.7169 69.3634 93.112 68.0909C93.1638 68.0421 93.1942 67.9748 93.1963 67.9036C93.1985 67.8324 93.1723 67.7633 93.1235 67.7115C93.0747 67.6597 93.0073 67.6293 92.9362 67.6272C92.865 67.625 92.7959 67.6512 92.7441 67.7C91.7092 68.6582 82.2733 77.0287 81.9666 77.3046C80.7249 76.2238 70.9516 67.585 70.5683 67.2631C70.5204 67.2259 70.4604 67.2079 70.3999 67.2123C70.3394 67.2168 70.2827 67.2436 70.2408 67.2874C70.1989 67.3312 70.1747 67.389 70.1729 67.4497C70.1711 67.5103 70.1918 67.5694 70.2311 67.6157C70.8673 68.2672 79.6747 76.3695 81.3534 77.8489C80.4566 78.6154 71.5725 86.4723 70.622 87.3155C70.5865 87.3435 70.5612 87.3823 70.5498 87.426C70.5385 87.4697 70.5417 87.5159 70.5591 87.5576C70.5765 87.5993 70.607 87.6342 70.646 87.6569C70.6851 87.6796 70.7305 87.6889 70.7753 87.6835C71.1356 87.6835 81.1771 78.945 81.8823 78.3318C83.561 79.7499 89.4633 84.556 90.9504 85.7441C91.257 85.9588 91.6096 85.5678 91.3336 85.3379ZM15.7461 122.798C15.7461 122.798 36.6187 121.602 36.9943 121.572C37.0541 121.567 37.1121 121.549 37.1636 121.518C37.2151 121.488 37.2586 121.445 37.2906 121.394C37.3227 121.344 37.3424 121.286 37.3482 121.226C37.354 121.167 37.3457 121.106 37.3239 121.051C37.3622 115.991 37.8911 106.486 37.5692 105.996C37.4649 105.868 37.3276 105.771 37.1722 105.716C37.0169 105.66 36.8493 105.649 36.6877 105.682L15.861 106.709C15.7634 106.713 15.6709 106.754 15.6025 106.824C15.5341 106.893 15.495 106.987 15.4931 107.084C15.3628 110.097 15.0945 122.2 15.1635 122.415C15.199 122.538 15.2772 122.644 15.384 122.714C15.4908 122.784 15.6192 122.814 15.7461 122.798ZM36.9253 106.609C36.9253 107.238 36.887 109.928 36.634 120.821C34.5261 120.905 16.367 121.986 15.9377 122.009C15.9377 120.391 16.1983 109.269 16.2673 107.445L36.7337 106.417C36.7839 106.419 36.8315 106.44 36.8671 106.476C36.9026 106.511 36.9234 106.559 36.9253 106.609ZM44.008 120.683C44.1077 121.043 44.4526 121.058 44.8129 121.028C67.1343 119.295 65.9845 119.901 66.1378 119.617C66.1991 119.494 66.0841 120.123 66.3524 112.105C66.3524 111.116 66.6514 104.616 66.4061 104.241C66.3029 104.111 66.1657 104.014 66.01 103.958C65.8543 103.903 65.6862 103.892 65.5246 103.926C65.4172 103.926 45.7634 104.892 44.7056 104.953C44.6066 104.955 44.5122 104.996 44.4422 105.066C44.3722 105.136 44.332 105.23 44.33 105.329C44.2073 108.157 43.9314 120.422 44.008 120.683ZM44.7746 120.253C44.7746 118.59 45.0429 107.445 45.1042 105.689L65.6779 104.662C65.8542 104.662 65.8542 103.535 65.4939 119.05C63.3629 119.142 45.2268 120.223 44.7516 120.253H44.7746ZM70.6297 118.812C70.737 119.165 71.0742 119.18 71.4422 119.15C93.7635 117.41 92.6137 118.023 92.7671 117.739C92.8284 117.624 92.7134 118.207 92.9817 110.235C92.9817 109.223 93.2806 102.753 93.0353 102.363C92.9322 102.233 92.795 102.136 92.6393 102.08C92.4836 102.025 92.3155 102.014 92.1538 102.048L71.3349 103.075C71.2359 103.077 71.1415 103.118 71.0714 103.188C71.0014 103.258 70.9612 103.352 70.9593 103.451C70.829 106.425 70.5607 118.529 70.6297 118.812ZM71.7105 103.827L92.2841 102.799C92.4604 102.799 92.4528 101.688 92.1002 117.187C89.9922 117.264 71.8254 118.345 71.4039 118.375C71.3809 118.268 71.6415 105.674 71.7105 103.796V103.827Z" fill="black"/>
<path d="M35.8291 106.977C33.5295 108.763 27.5276 113.033 26.6767 113.654C25.9792 113.232 18.1223 108.525 17.2714 107.997C17.2165 107.961 17.1497 107.949 17.0858 107.962C17.0218 107.976 16.9659 108.014 16.9303 108.069C16.8947 108.124 16.8824 108.191 16.8961 108.255C16.9097 108.319 16.9482 108.375 17.0031 108.41C18.1452 109.177 24.5458 113.24 25.9945 114.144C25.5346 114.474 17.6623 120.138 17.1947 120.522C17.1545 120.554 17.1253 120.598 17.1114 120.647C17.0976 120.697 17.0997 120.75 17.1175 120.798C17.1354 120.847 17.168 120.888 17.2107 120.917C17.2535 120.946 17.3042 120.96 17.3557 120.959C17.6163 120.959 26.5541 114.757 26.7611 114.604C28.5624 115.654 35.0243 119.249 35.7371 119.625C35.7829 119.654 35.8378 119.666 35.8915 119.657C35.9452 119.649 35.9939 119.621 36.0284 119.579C36.051 119.526 36.0557 119.468 36.0419 119.413C36.028 119.357 35.9964 119.308 35.9518 119.272C33.1003 117.586 30.2181 115.838 27.4279 114.144C29.0913 112.91 36.1357 107.414 36.1357 107.414C36.1937 107.373 36.2331 107.311 36.2453 107.242C36.2575 107.172 36.2415 107.1 36.2009 107.042C36.1602 106.984 36.0982 106.945 36.0285 106.933C35.9588 106.92 35.8871 106.936 35.8291 106.977ZM65.0569 105.015C64.459 105.436 55.253 111.829 54.5555 112.327C52.8921 111.185 47.4804 107.414 46.2616 106.471C46.001 106.272 45.6867 106.678 45.9396 106.877C48.0016 108.502 52.7234 112.005 53.8656 112.826C52.1562 114.098 46.4072 118.069 45.3111 119.157C45.2837 119.184 45.2648 119.217 45.2568 119.255C45.2487 119.292 45.2519 119.33 45.2659 119.366C45.2798 119.401 45.304 119.431 45.3352 119.453C45.3665 119.474 45.4034 119.486 45.4414 119.487C45.5487 119.487 46.1083 119.173 54.5095 113.27C56.3875 114.512 62.4584 118.13 63.8228 118.858C63.8649 118.876 63.9119 118.878 63.9555 118.864C63.999 118.85 64.0361 118.821 64.0602 118.783C64.0842 118.744 64.0936 118.698 64.0866 118.652C64.0796 118.607 64.0567 118.566 64.0221 118.536C62.8876 117.77 55.7666 113.171 55.207 112.772C56.5868 111.799 64.7733 105.789 65.3252 105.39C65.375 105.355 65.4087 105.301 65.4187 105.24C65.4288 105.18 65.4144 105.118 65.3789 105.068C65.3433 105.019 65.2894 104.985 65.229 104.975C65.1686 104.965 65.1067 104.979 65.0569 105.015ZM82.2732 110.12C84.1742 111.392 89.9385 115.417 91.1803 116.367C91.206 116.389 91.2356 116.405 91.2676 116.415C91.2996 116.425 91.3333 116.429 91.3668 116.426C91.4002 116.423 91.4328 116.414 91.4626 116.399C91.4924 116.383 91.5189 116.362 91.5406 116.336C91.5622 116.311 91.5786 116.281 91.5887 116.249C91.5989 116.217 91.6027 116.183 91.5998 116.15C91.597 116.116 91.5876 116.084 91.5721 116.054C91.5567 116.024 91.5356 115.998 91.5099 115.976C90.5211 115.21 84.4271 110.656 82.9937 109.645C83.7603 109.146 90.82 104.279 91.6632 103.719C91.6924 103.701 91.7177 103.677 91.7378 103.65C91.7578 103.622 91.7721 103.59 91.78 103.557C91.7878 103.523 91.789 103.488 91.7834 103.455C91.7778 103.421 91.7656 103.388 91.7475 103.359C91.7294 103.33 91.7057 103.304 91.6778 103.284C91.6499 103.264 91.6183 103.25 91.5848 103.242C91.5514 103.234 91.5167 103.233 91.4828 103.239C91.4489 103.244 91.4164 103.257 91.3872 103.275C90.6974 103.727 82.6488 108.824 82.1889 109.123C80.6022 108.127 75.2901 105.015 73.8644 104.355C73.8095 104.329 73.7463 104.326 73.6889 104.346C73.6314 104.366 73.5842 104.408 73.5577 104.463C73.3891 104.785 73.4274 104.555 81.4683 109.599C79.2224 111.132 72.27 116.06 71.5648 116.612C71.5263 116.652 71.5012 116.703 71.493 116.758C71.4848 116.813 71.4938 116.869 71.5188 116.919C71.5516 116.967 71.6015 117.001 71.6585 117.014C71.7154 117.027 71.7751 117.017 71.8254 116.988C72.6532 116.513 82.2732 110.12 82.2732 110.12Z" fill="black"/>
<path d="M149.474 132.341C148.631 132.15 144.109 131.537 120.446 128.049C119.946 127.346 119.558 126.571 119.296 125.749C119.196 123.45 118.606 116.152 118.415 114.727C118.031 111.89 117.257 109.054 117.318 106.134C118.139 105.958 118.951 105.766 119.733 105.551C119.8 105.53 119.858 105.488 119.899 105.432C119.941 105.375 119.963 105.307 119.963 105.237C119.973 102.371 119.763 99.5085 119.334 96.6748C120.622 95.2491 120.576 92.5662 120.53 90.3816C120.53 88.3886 120.599 86.9935 120.592 73.5179C122.945 71.6706 122.408 67.5697 122.125 65.4847C122.807 65.0094 122.837 65.0094 122.845 64.8945C122.786 64.147 122.632 63.4103 122.385 62.7022C122.223 62.3306 121.985 61.9965 121.688 61.721C121.948 61.3378 121.994 61.3071 121.941 61.1845C121.504 60.2876 121.174 59.6514 120.745 58.9692V52.2467C122.121 52.3982 123.507 52.0706 124.669 51.3192C124.712 51.2969 124.744 51.2597 124.76 51.2149C124.776 51.17 124.775 51.1208 124.757 51.0768C124.739 51.0327 124.705 50.9971 124.662 50.9767C124.619 50.9563 124.569 50.9527 124.524 50.9666C123.481 51.2196 122.73 51.0969 122.286 50.591C121.189 49.3646 122.079 46.1298 122.516 44.98C123.543 42.1132 124.815 42.0135 125.122 39.9516C125.296 38.4656 124.966 36.9641 124.185 35.6881C123.404 34.4121 122.216 33.4354 120.814 32.9148C120.814 32.8535 121.021 21.2252 121.028 20.8649C121.105 17.5612 121.205 13.0387 117.51 11.5439C116.676 11.265 115.796 11.153 114.919 11.2143C114.758 11.2143 33.7666 8.62345 33.1994 8.58513C31.6691 8.40927 30.1222 8.44021 28.6002 8.67711C24.7675 9.50496 24.7139 13.2763 24.6909 15.7292C24.6909 15.9362 24.7369 37.3377 24.7675 57.7044C22.1843 57.6431 11.8898 57.6278 9.73587 57.7044C7.91919 57.7044 6.33247 57.8347 5.32065 58.6089C4.82663 58.9995 4.42582 59.4952 4.14738 60.06C3.86893 60.6249 3.71984 61.2446 3.71094 61.8743C3.71094 69.3787 4.47747 114.405 4.06354 129.398C4.00988 131.345 4.88373 132.878 6.36313 133.33C5.45096 134.564 6.36313 135.967 7.66624 136.55C17.7614 138.727 47.0506 144.982 49.3655 144.982C50.5536 144.982 110.197 139.179 145.864 135.737C147.918 135.737 149.95 134.687 149.697 132.786C149.605 132.326 149.605 132.372 149.474 132.341ZM117.579 114.213C118.054 117.977 118.208 121.802 118.491 125.588C117.701 125.89 116.828 125.89 116.038 125.588C113.739 121.227 110.098 115.309 110.673 110.166C110.849 108.51 110.918 107.782 109.975 106.402C110.795 106.348 111.631 106.272 112.505 106.134C112.666 106.134 112.727 106.134 113.271 103.144C114.367 106.517 114.367 106.747 114.636 106.686L116.613 106.264C116.514 108.955 117.211 111.584 117.579 114.213ZM95.0507 132.518C96.1392 133.698 99.144 131.981 100.501 131.1C100.531 131.082 100.555 131.056 100.57 131.024C100.585 130.993 100.59 130.958 100.585 130.923C100.561 130.764 100.571 130.601 100.613 130.445C100.655 130.29 100.729 130.144 100.83 130.019C100.85 129.989 100.876 129.963 100.907 129.943C100.937 129.924 100.971 129.91 101.007 129.904C101.129 129.904 101.367 130.126 101.482 130.548C101.597 130.969 102.701 130.716 103.015 130.548C103.145 130.471 103.153 130.486 103.015 128.248C106.51 128.9 113.401 130.088 115.893 130.548C115.969 130.877 116.046 131.199 116.13 131.506C107.698 132.273 48.8136 137.531 47.3342 137.638C46.468 137.439 28.7228 134.273 28.1019 134.166C44.2451 132.84 86.4119 129.39 97.5879 128.432C96.1009 130.67 94.8361 130.962 94.7824 131.222C94.7165 131.444 94.7064 131.678 94.7533 131.904C94.8001 132.13 94.9023 132.341 95.0507 132.518ZM93.7476 100.791C89.3784 100.937 32.7241 102.945 29.3207 102.102C26.5765 101.757 25.2888 99.3883 25.4881 95.0651C25.5341 92.7655 25.3424 25.5868 25.3041 16.6797C37.7679 17.2469 112.221 19.3242 120.285 19.3932C120.285 20.8113 120.155 27.825 120.07 32.6619C117.51 32.0026 114.344 32.5775 114.804 35.0918C114.812 35.1333 114.834 35.1711 114.866 35.1991C115.155 35.4255 115.397 35.7074 115.577 36.0283C115.756 36.3492 115.87 36.7027 115.911 37.0681C115.953 37.4335 115.921 37.8035 115.818 38.1564C115.714 38.5094 115.542 38.8382 115.31 39.1237C115.126 39.3383 115.64 40.2735 115.394 43.5543C115.065 47.9618 117.326 51.2196 119.909 52.0244C119.909 53.0209 119.871 56.7309 119.871 57.6048C117.18 53.4118 115.762 52.6836 111.286 49.7785C111.056 49.6252 111.048 50.0314 111.876 46.881C112.406 46.711 112.891 46.4244 113.295 46.0424C113.7 45.6604 114.014 45.1926 114.214 44.6734C114.383 42.8888 114.383 41.0922 114.214 39.3077C114.418 38.6252 114.466 37.9053 114.353 37.2018C114.24 36.4983 113.97 35.8294 113.562 35.2451C112.862 34.0623 111.809 33.1293 110.55 32.5775C108.105 31.5504 105.836 32.5775 103.828 33.459C101.528 34.5399 101.666 35.1914 101.95 37.6903C101.953 37.8896 102.002 38.0854 102.094 38.2623C102.186 38.4392 102.317 38.5924 102.478 38.7098C101.942 40.5111 101.168 43.8302 101.75 45.6086C101.973 46.2465 102.322 46.8331 102.777 47.3334C103.231 47.8338 103.781 48.2378 104.395 48.5214C104.341 48.7513 104.226 49.1806 104.142 49.5025C103.766 49.4029 103.076 49.2342 102.67 49.1423C100.087 47.9388 97.7413 46.5667 95.0891 46.8427C94.884 46.8717 94.6892 46.9507 94.5218 47.0726C94.1337 46.6995 93.6785 46.403 93.1804 46.1988C92.7665 45.4323 85.883 34.3942 85.7987 34.2639C85.4538 33.7197 85.1625 33.2444 85.4154 32.6925C85.6684 32.1406 86.3429 31.1595 86.2663 30.3469L92.5518 30.3086C92.7551 30.3086 92.9501 30.2278 93.0939 30.0841C93.2376 29.9403 93.3184 29.7454 93.3184 29.5421V27.4264C93.3184 27.2232 93.2376 27.0282 93.0939 26.8844C92.9501 26.7407 92.7551 26.6599 92.5518 26.6599H69.7552C69.5519 26.6599 69.357 26.7407 69.2132 26.8844C69.0694 27.0282 68.9887 27.2232 68.9887 27.4264V29.8947C68.9887 30.098 69.0694 30.2929 69.2132 30.4367C69.357 30.5805 69.5519 30.6612 69.7552 30.6612L78.4093 30.5769C79.252 32.0341 80.5086 33.208 82.0197 33.9496C82.3417 34.1183 82.311 34.1413 82.9319 37.4297C83.9437 42.7264 84.9862 48.2071 88.2976 52.584C88.2363 52.7373 88.1903 52.8906 88.1366 53.0439C88.1208 53.095 88.1174 53.1491 88.1266 53.2017C88.1358 53.2544 88.1574 53.3041 88.1896 53.3468C88.2218 53.3894 88.2636 53.4238 88.3117 53.4471C88.3598 53.4705 88.4128 53.482 88.4662 53.4808C88.7197 53.4736 88.9718 53.5205 89.2057 53.6183C89.4396 53.7161 89.6501 53.8626 89.823 54.0481C89.6927 55.5428 89.984 56.3476 91.7546 57.6737C92.1992 58.0034 95.1964 59.6361 95.9859 60.05C95.6333 61.4451 95.3343 62.8708 95.0507 64.3042C87.0098 64.5725 69.4179 64.7335 68.9887 65.0708C68.8607 65.1719 68.7581 65.3014 68.6889 65.4491C68.6197 65.5968 68.5859 65.7586 68.5901 65.9216C68.4674 68.9877 68.2068 86.4953 68.2298 87.3002C68.2298 88.8332 68.4828 89.7684 70.1155 89.5997C71.3036 89.5997 85.9903 89.2241 92.0153 89.0708C91.9233 90.0827 91.8926 90.098 92.0153 90.1823C92.7045 90.7057 93.4839 91.098 94.3149 91.3398C93.7696 94.4587 93.5767 97.6291 93.74 100.791H93.7476ZM107.315 54.2704C105.483 54.485 102.578 54.1937 102.057 52.5073C101.858 51.7408 102.586 50.3687 102.977 49.8935L104.31 50.2077C104.392 50.2265 104.477 50.213 104.548 50.1701C104.62 50.1272 104.672 50.0583 104.694 49.9778C104.793 49.5485 104.916 49.0886 105 48.7513C105.299 48.851 105.621 48.9736 105.69 48.69C105.698 48.6598 105.7 48.6283 105.696 48.5973C105.692 48.5663 105.682 48.5364 105.666 48.5094C105.651 48.4823 105.63 48.4586 105.605 48.4396C105.58 48.4206 105.552 48.4067 105.522 48.3987C103.222 47.7625 101.973 45.5012 102.455 42.872C102.696 41.1388 103.039 39.4214 103.483 37.7286C104.15 38.4772 105.043 38.9872 106.027 39.1809C107.011 39.3746 108.031 39.2415 108.933 38.8018C108.742 40.2053 108.852 41.6334 109.257 42.9908C109.661 44.3483 110.35 45.6039 111.278 46.674C110.381 49.7402 110.351 49.7402 110.581 50.0774C110.811 50.4147 111.585 50.7366 112.466 51.4112C111.149 52.9526 109.32 53.9677 107.315 54.2704ZM107.315 55.6501C106.917 55.6501 107.315 54.9219 107.645 54.9219C107.974 54.9219 107.576 55.6271 107.315 55.6501ZM104.962 55.4585C104.962 55.8571 104.195 56.156 103.919 55.9567C103.644 55.7574 104.065 55.2898 104.479 55.1902C104.578 55.1641 104.682 55.1776 104.771 55.2277C104.86 55.2778 104.926 55.3606 104.954 55.4585H104.962ZM102.386 54.7609C102.355 54.7884 102.318 54.808 102.277 54.818C102.237 54.828 102.194 54.8281 102.154 54.8183C102.113 54.8085 102.075 54.7892 102.044 54.7619C102.012 54.7345 101.988 54.7 101.973 54.6613C101.888 54.255 102.494 54.0327 102.616 54.1937C102.739 54.3547 102.647 54.5386 102.379 54.7609H102.386ZM113.754 66.4888C113.804 66.5093 113.846 66.5446 113.875 66.5899C113.903 66.6351 113.918 66.6882 113.915 66.7418C113.901 66.7935 113.871 66.8396 113.83 66.8739C113.789 66.9082 113.738 66.929 113.685 66.9334C111.385 66.7265 109.661 65.2317 109.186 62.3879C109.173 62.3239 109.187 62.2576 109.224 62.2037C109.26 62.1498 109.317 62.1127 109.381 62.1005C109.445 62.0883 109.511 62.102 109.565 62.1387C109.619 62.1753 109.656 62.2319 109.668 62.2959C109.917 63.293 110.425 64.2064 111.141 64.9429C111.858 65.6795 112.757 66.2129 113.746 66.4888H113.754ZM83.7061 30.5309C83.7521 30.7225 83.2078 30.7915 82.7326 32.1023C82.7204 32.1626 82.7307 32.2252 82.7614 32.2785C82.7921 32.3318 82.8412 32.372 82.8994 32.3918C82.9577 32.4115 83.0211 32.4093 83.0779 32.3857C83.1346 32.362 83.1808 32.3185 83.2078 32.2633C83.6141 31.1595 84.5646 31.3664 84.3806 30.4696C84.0204 28.7296 84.4496 27.8327 85.0475 28.009C85.1625 28.009 85.1012 29.5421 85.4768 29.933C86.1436 30.6995 84.9325 31.8493 84.7102 32.7002C84.6488 32.9776 84.6514 33.2654 84.7178 33.5416C84.7842 33.8179 84.9127 34.0754 85.0935 34.2946C85.2391 34.5169 92.1149 45.6239 92.5748 46.3444C90.9548 47.9379 89.5966 49.7772 88.5505 51.7945C84.8405 46.5591 84.1123 39.9746 82.8629 33.965C82.708 33.6397 82.4333 33.387 82.0964 33.2597C80.9066 32.6427 79.9055 31.7157 79.1989 30.5769L83.7061 30.5309ZM92.6208 47.2489C92.9658 46.8657 93.0041 46.789 93.1344 46.8197C93.4482 46.9778 93.7416 47.1734 94.0082 47.4022C93.1037 48.1151 90.6278 50.9896 89.9763 53.1895C89.6497 52.9677 89.273 52.8307 88.8802 52.7909C89.5854 50.66 91.1338 48.9276 92.6208 47.2489ZM92.0842 88.3963C85.8754 88.5036 70.2535 88.9405 69.2723 88.7949C68.9887 88.5419 69.004 87.9824 69.0117 87.5301C69.0117 87.4458 69.2263 67.1251 69.3413 65.822C69.3413 65.5613 67.4403 65.6763 94.8821 65.0018C93.5177 72.3988 92.8431 80.432 92.0842 88.3963ZM94.9051 91.5237C95.7362 91.6764 96.5882 91.6764 97.4193 91.5237C97.4598 91.5176 97.4973 91.4987 97.5263 91.4697C97.5553 91.4408 97.5742 91.4033 97.5803 91.3628C99.1593 82.7776 97.6876 82.1644 99.1133 66.5808C99.8799 57.85 101.03 54.9679 100.8 54.6843C99.5579 53.1512 100.324 51.4878 101.904 50.361C101.137 51.7408 101.352 52.8599 101.965 53.5575C101.773 53.6286 101.61 53.7595 101.499 53.9308C101.387 54.1021 101.334 54.3047 101.347 54.5085C101.36 54.7124 101.438 54.9067 101.57 55.0626C101.702 55.2185 101.881 55.3277 102.08 55.3742C102.357 55.3921 102.631 55.3039 102.846 55.1274C103.061 54.9509 103.201 54.6994 103.237 54.4237C103.475 54.5203 103.718 54.6022 103.965 54.6689C102.931 55.2822 102.961 56.6313 104.172 56.6313C104.515 56.6538 104.854 56.5452 105.12 56.3275C105.386 56.1098 105.56 55.7992 105.606 55.4585C105.606 54.6383 104.747 54.9679 106.656 54.9219C105.928 56.4013 107.928 56.7539 108.335 55.3205C108.405 55.1222 108.405 54.9056 108.335 54.7073C111.876 53.9407 109.937 52.5533 108.335 58.5859C107.07 63.2924 107.568 68.9034 108.235 72.8204C107.353 73.5147 106.532 74.2841 105.782 75.12C104.908 73.288 104.533 72.4601 104.341 72.0999C104.149 71.7396 104.142 71.8239 104.034 71.8546C103.628 71.9925 102.54 72.4218 101.497 72.8587C101.934 68.1752 102.187 65.3007 103.03 58.4403C103.035 58.3807 103.018 58.3213 102.981 58.2741C102.944 58.2269 102.891 58.1953 102.832 58.1856C102.773 58.1759 102.712 58.1889 102.662 58.2219C102.613 58.2549 102.577 58.3055 102.563 58.3636C101.896 62.4569 101.106 67.7536 100.777 73.173C100.01 73.4949 99.6116 73.6559 99.4123 73.7709C99.213 73.8859 99.2283 73.9395 99.2666 74.0392C99.4353 74.4454 99.9259 75.5722 100.531 76.9597C99.7649 82.8696 97.8946 100.814 97.7106 103.413C96.51 102.775 95.3991 101.981 94.4068 101.052C94.2115 97.8671 94.3786 94.6706 94.9051 91.5237ZM107.384 78.6307C107.813 78.2628 108.488 77.6189 108.917 77.1973C110.013 86.8019 110.772 82.1567 109.906 98.2999C109.73 101.565 109.576 104.432 109.676 105.697C107.885 105.816 106.087 105.747 104.31 105.49C104.402 103.535 105.261 86.1504 105.414 84.3183C106.573 83.8598 107.695 83.314 108.772 82.6856C108.925 82.5477 108.887 82.7163 107.384 78.6307ZM115.494 126.156V127.328C109.791 126.485 105.023 125.795 102.862 125.443C102.823 124.983 102.793 124.607 102.77 124.377C104.241 119.494 106.418 113.01 104.425 108.28C104.157 107.636 103.942 108.211 104.893 106.31C106.336 106.472 107.789 106.523 109.239 106.463C110.596 108.326 110.044 108.61 109.921 110.296C109.492 115.961 112.719 121.066 115.494 126.156ZM115.54 128.126C115.586 128.693 115.67 129.283 115.77 129.866L102.992 127.62C102.992 127.129 102.938 126.639 102.908 126.179C105.46 126.608 110.121 127.321 115.54 128.126ZM103.559 105.367C101.762 105.064 100.015 104.511 98.3698 103.727C98.4465 103.022 100.608 82.1261 101.037 78.1631C103.145 82.9539 103.72 84.2954 103.927 84.6326C104.027 84.7936 104.042 84.7553 104.096 84.7553C104.302 84.7179 104.505 84.6615 104.701 84.5866C104.203 90.167 103.598 103.336 103.559 105.367ZM104.165 106.187C103.345 107.629 103.268 107.721 103.651 108.38C104.418 109.706 104.464 112.159 104.418 113.684C104.287 116.497 102.21 123.442 102.003 124.124C101.684 124.407 101.289 124.59 100.866 124.651C100.444 124.712 100.014 124.649 99.6269 124.469C99.4659 124.408 99.5196 124.584 99.4276 123.365C99.1287 119.318 98.3468 108.847 97.8946 104.325C99.8808 105.253 101.994 105.881 104.165 106.187ZM114.766 93.3941C115.119 96.4142 116.261 104.233 116.46 105.567L114.866 105.965C114.613 105.199 113.8 102.332 113.486 101.665C113.452 101.603 113.4 101.552 113.336 101.52C113.273 101.488 113.202 101.475 113.131 101.485C113.061 101.494 112.995 101.524 112.942 101.571C112.889 101.618 112.851 101.68 112.834 101.749C112.604 102.991 112.382 104.24 112.16 105.482C111.508 105.544 110.918 105.59 110.374 105.628C110.374 101.749 110.512 97.7863 110.742 93.854C112.022 93.7543 114.099 93.5167 114.766 93.3941ZM111.861 82.471C111.856 82.4214 111.872 82.372 111.903 82.3333C111.935 82.2947 111.98 82.2698 112.029 82.264C117.395 81.6202 117.18 81.5665 117.257 81.7811C117.427 82.347 117.484 82.9408 117.426 83.5288C117.426 83.7358 117.648 83.6131 112.244 84.2954C111.976 84.3643 112.022 84.1037 111.861 82.471ZM117.165 105.39C116.215 100.385 115.977 98.4455 115.348 93.2944C116.207 93.2193 117.059 93.0887 117.901 92.9035C118.816 96.8446 119.281 100.877 119.288 104.923C118.553 105.068 117.817 105.237 117.165 105.39ZM119.848 82.6933C119.771 93.1564 120.04 93.9076 119.158 95.6707C118.982 94.6435 118.783 93.6087 118.553 92.6045C118.794 92.4335 119.011 92.2297 119.196 91.999C119.419 91.7307 118.599 82.0341 117.272 75.0203C117.916 74.775 119.196 74.2538 119.886 73.9012C119.894 76.8217 119.871 79.8035 119.848 82.6933ZM121.327 71.0727C121.156 71.8087 120.72 72.4556 120.101 72.8894C116.828 75.005 109.032 76.0475 108.956 76.0552C108.919 76.0622 108.885 76.0787 108.857 76.1029C108.829 76.1271 108.807 76.1582 108.795 76.1931C108.265 76.9366 107.644 77.6112 106.947 78.2014C106.54 78.6728 106.009 79.0206 105.414 79.2056C104.947 79.2746 103.812 78.7073 105.069 78.5924C105.403 78.6031 105.732 78.507 106.008 78.3182C106.283 78.1293 106.492 77.8575 106.602 77.5422C106.62 77.4929 106.62 77.439 106.601 77.3899C106.583 77.3408 106.548 77.2998 106.503 77.2739C106.058 77.067 106.426 78.1171 104.303 78.0405C103.789 78.0405 103.13 77.3812 103.973 77.4426C105.338 77.5499 106.273 76.6147 105.935 76.3618C105.9 76.3325 105.855 76.3165 105.809 76.3165C105.763 76.3165 105.718 76.3325 105.683 76.3618C105.092 76.9903 104.211 76.837 103.322 76.7297C102.885 76.676 102.555 76.2085 103.13 76.1165C103.896 75.9938 105.774 76.0015 105.989 75.7869C108.289 73.2343 111.6 71.5403 114.298 70.1835C116.789 68.9592 119.176 67.5338 121.435 65.9216C121.71 67.6311 121.673 69.3762 121.327 71.0727ZM121.151 62.3802C121.575 63.0164 121.804 63.7622 121.81 64.5265C119.792 66.0354 117.685 67.4227 115.502 68.6811C115.44 68.2442 115.333 67.4393 115.318 67.1481C118.223 65.5 120.277 63.806 121.151 62.3802ZM29.0064 9.25201C54.2023 9.83457 114.298 11.8352 114.298 11.8352C115.394 11.8352 115.946 11.8889 116.215 11.8735H116.284C118.422 12.1725 119.641 14.1731 120.04 15.7829C120.236 16.751 120.319 17.739 120.285 18.7263C107.001 18.504 61.86 17.4769 25.2964 15.9055C25.2964 12.5174 25.6184 9.70426 29.0064 9.25201ZM25.2964 99.649C23.3495 99.649 17.2249 99.649 15.2779 99.7409C15.2779 97.3494 15.1399 80.823 15.1169 78.4237C16.5657 78.4774 23.2191 78.3088 24.7445 78.2704C24.7599 97.5717 24.5299 97.6023 25.2964 99.649ZM24.7292 71.2873C22.6059 71.2873 16.1517 71.2873 14.6877 71.3563C14.7336 70.4825 14.7643 68.2902 14.7873 67.24C16.2131 67.24 22.5446 67.0637 24.7522 66.9411C24.7215 68.3592 24.7215 69.8156 24.7215 71.2337L24.7292 71.2873ZM24.7292 66.2512C23.6714 66.2512 14.9253 66.5195 14.4807 66.5578C14.0361 66.5962 14.1204 67.0101 14.0974 67.7766C14.0131 70.3138 13.9901 71.341 14.0361 71.7626C14.0744 72.0462 14.1358 72.0539 14.2431 72.0615C15.2396 72.1305 23.7251 71.9925 24.7369 71.9772V77.5805C14.1817 77.7032 14.473 77.6879 14.473 78.1095C14.473 78.3088 14.473 98.5068 14.5573 100.262C14.5573 100.622 15.4619 100.53 25.649 100.446C26.8678 102.746 28.8225 102.93 31.421 103.114C34.0196 103.298 91.2717 101.627 93.9163 101.535C94.8545 102.577 95.9837 103.431 97.243 104.049C97.6186 108.364 98.1628 116.313 98.5001 121.388C93.6786 121.71 13.4152 127.65 10.5637 127.857C10.5637 125.949 10.2188 62.7482 10.2188 62.7482C11.4759 62.7482 23.2498 62.5565 24.7139 62.5106V66.1976L24.7292 66.2512ZM6.8997 132.709C6.01819 131.797 6.39379 134.572 6.39379 61.4221C6.39379 59.1225 7.92686 58.5246 9.71287 58.4249C12.0125 58.2946 16.2284 58.5246 24.7139 58.2793V61.7517C22.9509 61.7517 9.85851 61.9663 9.85851 61.9663C9.80791 61.968 9.75815 61.9797 9.7121 62.0008C9.66605 62.0218 9.62463 62.0518 9.59023 62.089C9.43692 62.2576 9.83552 128.287 9.86618 128.363C9.88114 128.397 9.9058 128.427 9.93713 128.447C9.96846 128.467 10.0051 128.478 10.0425 128.478C10.0425 128.478 90.7812 122.637 98.5461 122.001C98.5461 122.492 98.7607 125.259 98.7914 125.634C88.4279 126.478 7.66624 132.61 6.8997 132.709ZM48.9362 141.532L8.74704 133.192C23.4491 132.234 87.0865 127.359 98.6151 126.363C98.4825 126.794 98.3105 127.212 98.1015 127.612C90.8118 128.172 25.4497 133.66 25.4497 133.66C24.9668 133.706 25.0052 134.426 25.4497 134.426L47.2652 138.397C47.3265 138.397 48.9132 138.267 116.391 132.265C116.391 132.364 116.437 132.433 116.514 132.487C117.188 132.909 118.261 132.487 118.261 132.173C118.243 131.767 118.29 131.361 118.399 130.969C118.399 130.969 118.622 131.069 119.028 132.273C119.036 132.299 119.049 132.323 119.068 132.343C119.087 132.363 119.11 132.378 119.135 132.387C120.546 132.891 121.998 133.273 123.474 133.53C123.752 133.534 124.027 133.471 124.275 133.345C124.524 133.22 124.738 133.036 124.899 132.809C124.993 132.591 125.021 132.351 124.979 132.118C124.936 131.885 124.826 131.669 124.662 131.498C123.283 130.948 122.059 130.069 121.097 128.938C131.438 130.471 142.714 132.004 146.968 132.625L48.9362 141.532Z" fill="black"/>
</svg>